<svg xmlns="http://www.w3.org/2000/svg" xmlns:xlink="http://www.w3.org/1999/xlink" width="1080" zoomAndPan="magnify" viewBox="0 0 810 809.999993" height="1080" preserveAspectRatio="xMidYMid meet" version="1.0"><defs><clipPath id="8db2cf68da"><path d="M 258.25 257 L 399 257 L 399 410.996094 L 258.25 410.996094 Z M 258.25 257 " clip-rule="nonzero"/></clipPath><clipPath id="c095701369"><path d="M 293 213.03125 L 363 213.03125 L 363 257.527344 L 293 257.527344 Z M 293 213.03125 " clip-rule="nonzero"/></clipPath><clipPath id="617ad8a299"><path d="M 411 257 L 552 257 L 552 410.996094 L 411 410.996094 Z M 411 257 " clip-rule="nonzero"/></clipPath><clipPath id="059c93e6d9"><path d="M 446.199219 213.03125 L 517 213.03125 L 517 257.527344 L 446.199219 257.527344 Z M 446.199219 213.03125 " clip-rule="nonzero"/></clipPath></defs><g clip-path="url(#8db2cf68da)"><path fill="#a40033" d="M 338.847656 310.382812 C 341.867188 309.550781 344.996094 311.304688 345.832031 314.324219 C 352.589844 338.679688 373.761719 356.265625 398.539062 358.863281 L 398.539062 274.710938 C 398.539062 265.164062 390.800781 257.40625 381.246094 257.40625 L 275.523438 257.40625 C 265.964844 257.40625 258.214844 265.164062 258.214844 274.710938 L 258.214844 392.933594 C 258.214844 402.492188 265.964844 410.230469 275.523438 410.230469 L 381.246094 410.230469 C 390.800781 410.230469 398.539062 402.492188 398.539062 392.933594 L 398.539062 370.261719 C 368.675781 367.621094 343.023438 346.59375 334.90625 317.351562 C 334.074219 314.332031 335.828125 311.214844 338.847656 310.382812 Z M 372.386719 303.441406 C 376.636719 303.441406 380.089844 306.929688 380.089844 311.234375 C 380.089844 315.519531 376.636719 319.019531 372.386719 319.019531 C 368.121094 319.019531 364.660156 315.519531 364.660156 311.234375 C 364.660156 306.929688 368.121094 303.441406 372.386719 303.441406 Z M 372.386719 303.441406 " fill-opacity="1" fill-rule="nonzero"/></g><g clip-path="url(#c095701369)"><path fill="#000000" d="M 362.894531 257.40625 L 351.570312 257.40625 L 351.570312 247.578125 C 351.570312 234.800781 341.167969 224.398438 328.390625 224.398438 C 315.613281 224.398438 305.210938 234.800781 305.210938 247.578125 L 305.210938 257.40625 L 293.886719 257.40625 L 293.886719 247.578125 C 293.886719 228.550781 309.371094 213.078125 328.390625 213.078125 C 347.40625 213.078125 362.90625 228.5625 362.90625 247.578125 L 362.90625 257.40625 Z M 362.894531 257.40625 " fill-opacity="1" fill-rule="nonzero"/></g><g clip-path="url(#617ad8a299)"><path fill="#28264c" d="M 534.335938 257.40625 L 428.613281 257.40625 C 419.054688 257.40625 411.308594 265.164062 411.308594 274.710938 L 411.308594 358.875 C 436.085938 356.285156 457.269531 338.679688 464.039062 314.324219 C 464.871094 311.304688 467.992188 309.539062 471 310.382812 C 474.019531 311.214844 475.796875 314.332031 474.964844 317.351562 C 466.835938 346.59375 441.179688 367.632812 411.308594 370.261719 L 411.308594 392.933594 C 411.308594 402.492188 419.054688 410.230469 428.613281 410.230469 L 534.335938 410.230469 C 543.894531 410.230469 551.640625 402.492188 551.640625 392.933594 L 551.640625 274.710938 C 551.640625 265.164062 543.894531 257.40625 534.335938 257.40625 Z M 437.484375 319.019531 C 433.222656 319.019531 429.769531 315.519531 429.769531 311.234375 C 429.769531 306.929688 433.222656 303.441406 437.484375 303.441406 C 441.738281 303.441406 445.199219 306.929688 445.199219 311.234375 C 445.199219 315.519531 441.738281 319.019531 437.484375 319.019531 Z M 437.484375 319.019531 " fill-opacity="1" fill-rule="nonzero"/></g><g clip-path="url(#059c93e6d9)"><path fill="#000000" d="M 515.996094 257.40625 L 504.671875 257.40625 L 504.671875 247.578125 C 504.671875 234.800781 494.269531 224.398438 481.492188 224.398438 C 468.714844 224.398438 458.3125 234.800781 458.3125 247.578125 L 458.3125 257.40625 L 446.988281 257.40625 L 446.988281 247.578125 C 446.988281 228.550781 462.472656 213.078125 481.492188 213.078125 C 500.519531 213.078125 516.007812 228.5625 516.007812 247.578125 L 516.007812 257.40625 Z M 515.996094 257.40625 " fill-opacity="1" fill-rule="nonzero"/></g><path fill="#000000" d="M 110.074219 484.589844 L 110.074219 447.113281 L 118.511719 447.113281 L 118.511719 484.589844 C 118.511719 493.363281 116.46875 499.824219 112.386719 503.996094 C 108.320312 508.171875 102.015625 510.257812 93.46875 510.257812 C 84.820312 510.257812 78.527344 508.214844 74.59375 504.128906 C 70.65625 500.042969 68.691406 493.539062 68.691406 484.589844 L 68.691406 447.113281 L 77.125 447.113281 L 77.125 484.589844 C 77.125 491.164062 78.335938 495.769531 80.769531 498.402344 C 83.1875 501.011719 87.429688 502.308594 93.46875 502.308594 C 99.5625 502.308594 103.859375 501.011719 106.347656 498.402344 C 108.832031 495.769531 110.074219 491.164062 110.074219 484.589844 Z M 110.074219 484.589844 " fill-opacity="1" fill-rule="nonzero"/><path fill="#000000" d="M 142.167969 474.644531 L 173.917969 474.644531 L 173.917969 480.996094 L 142.167969 480.996094 Z M 142.167969 474.644531 " fill-opacity="1" fill-rule="nonzero"/><path fill="#000000" d="M 222.9375 502.308594 C 225.65625 502.308594 228.53125 502 231.550781 501.375 C 234.570312 500.734375 237.367188 499.867188 239.945312 498.800781 L 239.945312 506.394531 C 236.300781 507.847656 233.058594 508.859375 230.21875 509.414062 C 227.398438 509.96875 224.46875 510.257812 221.425781 510.257812 C 211.890625 510.257812 205.171875 507.792969 201.265625 502.84375 C 197.359375 497.902344 195.402344 489.652344 195.402344 478.109375 C 195.402344 467.039062 197.667969 458.945312 202.199219 453.816406 C 206.726562 448.667969 213.964844 446.089844 223.914062 446.089844 C 226.953125 446.089844 229.6875 446.167969 232.082031 446.3125 C 234.480469 446.433594 236.636719 446.65625 238.566406 446.980469 L 238.566406 454.441406 C 236.222656 454.171875 233.871094 453.996094 231.507812 453.90625 C 229.164062 453.816406 226.632812 453.773438 223.914062 453.773438 C 216.507812 453.773438 211.347656 455.617188 208.414062 459.28125 C 205.484375 462.953125 204.019531 469.226562 204.019531 478.109375 C 204.019531 487.144531 205.351562 493.429688 208.015625 496.980469 C 210.679688 500.53125 215.652344 502.308594 222.9375 502.308594 Z M 222.9375 502.308594 " fill-opacity="1" fill-rule="nonzero"/><path fill="#000000" d="M 314.242188 478.109375 C 314.242188 489.453125 312.066406 497.648438 307.714844 502.710938 C 303.382812 507.75 296.3125 510.257812 286.488281 510.257812 C 275.941406 510.257812 268.660156 507.925781 264.640625 503.242188 C 260.644531 498.566406 258.644531 490.1875 258.644531 478.109375 C 258.644531 466.863281 260.820312 458.726562 265.171875 453.683594 C 269.546875 448.621094 276.652344 446.089844 286.488281 446.089844 C 297.023438 446.089844 304.273438 448.433594 308.246094 453.105469 C 312.242188 457.792969 314.242188 466.117188 314.242188 478.109375 Z M 270.191406 496.136719 C 271.433594 498.390625 273.277344 499.988281 275.742188 500.933594 C 278.195312 501.855469 281.78125 502.308594 286.488281 502.308594 C 293.859375 502.308594 298.886719 500.53125 301.585938 496.980469 C 304.304688 493.429688 305.671875 487.144531 305.671875 478.109375 C 305.671875 473.613281 305.425781 469.925781 304.960938 467.050781 C 304.515625 464.152344 303.785156 461.8125 302.785156 460.035156 C 301.542969 457.792969 299.699219 456.195312 297.277344 455.238281 C 294.847656 454.261719 291.25 453.773438 286.488281 453.773438 C 279.050781 453.773438 273.976562 455.570312 271.257812 459.148438 C 268.523438 462.730469 267.171875 469.050781 267.171875 478.109375 C 267.171875 482.636719 267.402344 486.355469 267.882812 489.253906 C 268.347656 492.128906 269.125 494.425781 270.191406 496.136719 Z M 270.191406 496.136719 " fill-opacity="1" fill-rule="nonzero"/><path fill="#000000" d="M 396.28125 447.113281 L 396.28125 509.457031 L 388.335938 509.457031 L 388.335938 460.300781 L 370.527344 497.023438 L 363.246094 497.023438 L 345.4375 460.210938 L 345.4375 509.457031 L 337.488281 509.457031 L 337.488281 447.113281 L 348.148438 447.113281 L 367.0625 486.765625 L 386.023438 447.113281 Z M 396.28125 447.113281 " fill-opacity="1" fill-rule="nonzero"/><path fill="#000000" d="M 481.015625 447.113281 L 481.015625 509.457031 L 473.066406 509.457031 L 473.066406 460.300781 L 455.257812 497.023438 L 447.976562 497.023438 L 430.167969 460.210938 L 430.167969 509.457031 L 422.21875 509.457031 L 422.21875 447.113281 L 432.878906 447.113281 L 451.796875 486.765625 L 470.757812 447.113281 Z M 481.015625 447.113281 " fill-opacity="1" fill-rule="nonzero"/><path fill="#000000" d="M 548.339844 501.511719 L 548.339844 509.457031 L 506.953125 509.457031 L 506.953125 447.113281 L 547.449219 447.113281 L 547.449219 454.75 L 515.433594 454.75 L 515.433594 473.84375 L 543.765625 473.84375 L 543.765625 481.304688 L 515.433594 481.304688 L 515.433594 501.511719 Z M 548.339844 501.511719 " fill-opacity="1" fill-rule="nonzero"/><path fill="#000000" d="M 579.082031 487.078125 L 579.082031 509.457031 L 570.601562 509.457031 L 570.601562 447.113281 L 591.78125 447.113281 C 600.597656 447.113281 606.925781 448.621094 610.746094 451.640625 C 614.5625 454.640625 616.472656 459.625 616.472656 466.605469 C 616.472656 472.023438 615.25 476.355469 612.832031 479.574219 C 610.402344 482.804688 606.746094 484.980469 601.863281 486.101562 L 618.160156 509.457031 L 608.035156 509.457031 L 592.894531 487.078125 Z M 607.902344 466.605469 C 607.902344 462.34375 606.671875 459.3125 604.21875 457.503906 C 601.785156 455.671875 597.644531 454.75 591.78125 454.75 L 579.082031 454.75 L 579.082031 479.617188 L 591.78125 479.617188 C 597.488281 479.617188 601.609375 478.597656 604.128906 476.554688 C 606.636719 474.488281 607.902344 471.167969 607.902344 466.605469 Z M 607.902344 466.605469 " fill-opacity="1" fill-rule="nonzero"/><path fill="#000000" d="M 664.601562 502.308594 C 667.320312 502.308594 670.195312 502 673.214844 501.375 C 676.234375 500.734375 679.03125 499.867188 681.605469 498.800781 L 681.605469 506.394531 C 677.964844 507.847656 674.722656 508.859375 671.882812 509.414062 C 669.0625 509.96875 666.132812 510.257812 663.089844 510.257812 C 653.554688 510.257812 646.835938 507.792969 642.929688 502.84375 C 639.023438 497.902344 637.066406 489.652344 637.066406 478.109375 C 637.066406 467.039062 639.332031 458.945312 643.863281 453.816406 C 648.390625 448.667969 655.628906 446.089844 665.578125 446.089844 C 668.617188 446.089844 671.347656 446.167969 673.746094 446.3125 C 676.144531 446.433594 678.300781 446.65625 680.230469 446.980469 L 680.230469 454.441406 C 677.886719 454.171875 675.535156 453.996094 673.171875 453.90625 C 670.828125 453.816406 668.296875 453.773438 665.578125 453.773438 C 658.171875 453.773438 653.007812 455.617188 650.078125 459.28125 C 647.148438 462.953125 645.683594 469.226562 645.683594 478.109375 C 645.683594 487.144531 647.015625 493.429688 649.679688 496.980469 C 652.34375 500.53125 657.316406 502.308594 664.601562 502.308594 Z M 664.601562 502.308594 " fill-opacity="1" fill-rule="nonzero"/><path fill="#000000" d="M 744.355469 501.511719 L 744.355469 509.457031 L 702.96875 509.457031 L 702.96875 447.113281 L 743.46875 447.113281 L 743.46875 454.75 L 711.453125 454.75 L 711.453125 473.84375 L 739.78125 473.84375 L 739.78125 481.304688 L 711.453125 481.304688 L 711.453125 501.511719 Z M 744.355469 501.511719 " fill-opacity="1" fill-rule="nonzero"/><path fill="#000000" d="M 64.800781 542.828125 L 72.929688 542.828125 C 75.914062 542.828125 78.367188 543.761719 80.300781 545.625 C 82.253906 547.492188 83.230469 549.867188 83.230469 552.730469 C 83.230469 555.605469 82.253906 557.992188 80.300781 559.878906 C 78.347656 561.746094 75.859375 562.679688 72.839844 562.679688 L 64.800781 562.679688 Z M 68.132812 545.804688 L 68.132812 559.660156 L 73.019531 559.660156 C 74.972656 559.660156 76.582031 559.027344 77.859375 557.75 C 79.15625 556.449219 79.8125 554.796875 79.8125 552.777344 C 79.8125 550.765625 79.144531 549.113281 77.8125 547.800781 C 76.480469 546.46875 74.839844 545.804688 72.882812 545.804688 Z M 68.132812 545.804688 " fill-opacity="1" fill-rule="nonzero"/><path fill="#000000" d="M 109.480469 545.804688 L 98.644531 545.804688 L 98.644531 551.175781 L 108.371094 551.175781 L 108.371094 554.195312 L 98.644531 554.195312 L 98.644531 559.660156 L 109.835938 559.660156 L 109.835938 562.679688 L 95.3125 562.679688 L 95.3125 542.828125 L 109.480469 542.828125 Z M 109.480469 545.804688 " fill-opacity="1" fill-rule="nonzero"/><path fill="#000000" d="M 141.625 559.660156 L 150.238281 559.660156 L 150.238281 562.679688 L 138.292969 562.679688 L 138.292969 542.828125 L 141.625 542.828125 Z M 141.625 559.660156 " fill-opacity="1" fill-rule="nonzero"/><path fill="#000000" d="M 163.347656 545.625 C 165.355469 543.707031 167.84375 542.738281 170.808594 542.738281 C 173.792969 542.738281 176.292969 543.707031 178.3125 545.625 C 180.355469 547.523438 181.375 549.890625 181.375 552.730469 C 181.375 555.574219 180.355469 557.972656 178.3125 559.925781 C 176.292969 561.855469 173.792969 562.8125 170.808594 562.8125 C 167.84375 562.8125 165.355469 561.855469 163.347656 559.925781 C 161.328125 557.972656 160.328125 555.574219 160.328125 552.730469 C 160.328125 549.890625 161.328125 547.523438 163.347656 545.625 Z M 170.851562 545.757812 C 168.898438 545.757812 167.210938 546.449219 165.789062 547.800781 C 164.390625 549.132812 163.703125 550.800781 163.703125 552.777344 C 163.703125 554.730469 164.414062 556.394531 165.835938 557.75 C 167.253906 559.113281 168.921875 559.792969 170.851562 559.792969 C 172.804688 559.792969 174.472656 559.113281 175.871094 557.75 C 177.257812 556.394531 177.957031 554.730469 177.957031 552.777344 C 177.957031 550.800781 177.257812 549.132812 175.871094 547.800781 C 174.472656 546.449219 172.804688 545.757812 170.851562 545.757812 Z M 170.851562 545.757812 " fill-opacity="1" fill-rule="nonzero"/><path fill="#000000" d="M 200.003906 542.652344 C 202.582031 542.652344 204.890625 543.351562 206.933594 544.738281 L 205.554688 547.667969 C 203.535156 546.425781 201.601562 545.804688 199.738281 545.804688 C 198.726562 545.804688 197.929688 546.003906 197.339844 546.382812 C 196.773438 546.734375 196.496094 547.246094 196.496094 547.890625 C 196.496094 548.546875 196.761719 549.113281 197.296875 549.578125 C 197.828125 550.054688 198.496094 550.398438 199.292969 550.601562 C 200.09375 550.8125 200.949219 551.089844 201.871094 551.441406 C 202.78125 551.777344 203.644531 552.132812 204.445312 552.507812 C 205.246094 552.863281 205.886719 553.441406 206.398438 554.242188 C 206.933594 555.019531 207.199219 555.949219 207.199219 557.039062 C 207.199219 558.792969 206.5 560.191406 205.113281 561.257812 C 203.710938 562.300781 201.914062 562.8125 199.695312 562.8125 C 198.183594 562.8125 196.71875 562.535156 195.296875 561.96875 C 193.875 561.378906 192.644531 560.613281 191.613281 559.660156 L 193.03125 556.726562 C 194.03125 557.683594 195.132812 558.402344 196.320312 558.902344 C 197.527344 559.414062 198.683594 559.660156 199.78125 559.660156 C 200.9375 559.660156 201.835938 559.457031 202.492188 559.035156 C 203.136719 558.59375 203.46875 557.992188 203.46875 557.214844 C 203.46875 556.539062 203.203125 555.972656 202.667969 555.527344 C 202.160156 555.0625 201.515625 554.71875 200.714844 554.507812 C 199.914062 554.273438 199.039062 554.007812 198.09375 553.707031 C 197.175781 553.386719 196.320312 553.0625 195.519531 552.730469 C 194.742188 552.375 194.097656 551.820312 193.566406 551.042969 C 193.03125 550.246094 192.765625 549.300781 192.765625 548.203125 C 192.765625 546.515625 193.410156 545.171875 194.71875 544.160156 C 196.050781 543.160156 197.808594 542.652344 200.003906 542.652344 Z M 200.003906 542.652344 " fill-opacity="1" fill-rule="nonzero"/><path fill="#000000" d="M 249.65625 545.804688 L 238.820312 545.804688 L 238.820312 551.175781 L 248.546875 551.175781 L 248.546875 554.195312 L 238.820312 554.195312 L 238.820312 559.660156 L 250.011719 559.660156 L 250.011719 562.679688 L 235.492188 562.679688 L 235.492188 542.828125 L 249.65625 542.828125 Z M 249.65625 545.804688 " fill-opacity="1" fill-rule="nonzero"/><path fill="#000000" d="M 269.15625 542.652344 C 271.730469 542.652344 274.042969 543.351562 276.082031 544.738281 L 274.707031 547.667969 C 272.6875 546.425781 270.753906 545.804688 268.890625 545.804688 C 267.878906 545.804688 267.082031 546.003906 266.492188 546.382812 C 265.925781 546.734375 265.648438 547.246094 265.648438 547.890625 C 265.648438 548.546875 265.914062 549.113281 266.449219 549.578125 C 266.980469 550.054688 267.648438 550.398438 268.445312 550.601562 C 269.246094 550.8125 270.101562 551.089844 271.019531 551.441406 C 271.933594 551.777344 272.796875 552.132812 273.597656 552.507812 C 274.394531 552.863281 275.039062 553.441406 275.550781 554.242188 C 276.082031 555.019531 276.351562 555.949219 276.351562 557.039062 C 276.351562 558.792969 275.652344 560.191406 274.261719 561.257812 C 272.863281 562.300781 271.066406 562.8125 268.84375 562.8125 C 267.335938 562.8125 265.871094 562.535156 264.449219 561.96875 C 263.027344 561.378906 261.796875 560.613281 260.761719 559.660156 L 262.183594 556.726562 C 263.183594 557.683594 264.28125 558.402344 265.46875 558.902344 C 266.679688 559.414062 267.835938 559.660156 268.933594 559.660156 C 270.089844 559.660156 270.988281 559.457031 271.644531 559.035156 C 272.285156 558.59375 272.621094 557.992188 272.621094 557.214844 C 272.621094 556.539062 272.355469 555.972656 271.820312 555.527344 C 271.308594 555.0625 270.667969 554.71875 269.867188 554.507812 C 269.066406 554.273438 268.191406 554.007812 267.246094 553.707031 C 266.324219 553.386719 265.46875 553.0625 264.671875 552.730469 C 263.894531 552.375 263.25 551.820312 262.71875 551.042969 C 262.183594 550.246094 261.917969 549.300781 261.917969 548.203125 C 261.917969 546.515625 262.5625 545.171875 263.871094 544.160156 C 265.203125 543.160156 266.957031 542.652344 269.15625 542.652344 Z M 269.15625 542.652344 " fill-opacity="1" fill-rule="nonzero"/><path fill="#000000" d="M 302.34375 545.804688 L 296.039062 545.804688 L 296.039062 562.679688 L 292.707031 562.679688 L 292.707031 545.804688 L 286.445312 545.804688 L 286.445312 542.828125 L 302.34375 542.828125 Z M 302.34375 545.804688 " fill-opacity="1" fill-rule="nonzero"/><path fill="#000000" d="M 330.625 542.828125 L 330.625 554.464844 C 330.625 557.039062 329.847656 559.082031 328.316406 560.589844 C 326.773438 562.078125 324.652344 562.8125 321.964844 562.8125 C 319.300781 562.8125 317.191406 562.078125 315.660156 560.589844 C 314.117188 559.082031 313.351562 557.039062 313.351562 554.464844 L 313.351562 542.828125 L 316.679688 542.828125 L 316.679688 554.464844 C 316.679688 556.128906 317.148438 557.425781 318.101562 558.371094 C 319.078125 559.324219 320.378906 559.792969 322.011719 559.792969 C 323.632812 559.792969 324.917969 559.335938 325.875 558.414062 C 326.816406 557.472656 327.292969 556.152344 327.292969 554.464844 L 327.292969 542.828125 Z M 330.625 542.828125 " fill-opacity="1" fill-rule="nonzero"/><path fill="#000000" d="M 343.953125 542.828125 L 352.078125 542.828125 C 355.066406 542.828125 357.519531 543.761719 359.449219 545.625 C 361.402344 547.492188 362.382812 549.867188 362.382812 552.730469 C 362.382812 555.605469 361.402344 557.992188 359.449219 559.878906 C 357.496094 561.746094 355.007812 562.679688 351.988281 562.679688 L 343.953125 562.679688 Z M 347.28125 545.804688 L 347.28125 559.660156 L 352.167969 559.660156 C 354.121094 559.660156 355.730469 559.027344 357.007812 557.75 C 358.308594 556.449219 358.960938 554.796875 358.960938 552.777344 C 358.960938 550.765625 358.296875 549.113281 356.964844 547.800781 C 355.632812 546.46875 353.988281 545.804688 352.035156 545.804688 Z M 347.28125 545.804688 " fill-opacity="1" fill-rule="nonzero"/><path fill="#000000" d="M 374.46875 542.828125 L 377.796875 542.828125 L 377.796875 562.679688 L 374.46875 562.679688 Z M 374.46875 542.828125 " fill-opacity="1" fill-rule="nonzero"/><path fill="#000000" d="M 404.390625 558.191406 L 394.355469 558.191406 L 392.445312 562.679688 L 388.984375 562.679688 L 397.730469 542.828125 L 401.152344 542.828125 L 409.855469 562.679688 L 406.257812 562.679688 Z M 403.105469 555.21875 L 399.375 546.382812 L 395.601562 555.21875 Z M 403.105469 555.21875 " fill-opacity="1" fill-rule="nonzero"/><path fill="#000000" d="M 438.25 562.679688 L 434.964844 562.679688 L 424.351562 548.421875 L 424.351562 562.679688 L 421.023438 562.679688 L 421.023438 542.828125 L 424.308594 542.828125 L 434.964844 557.082031 L 434.964844 542.828125 L 438.25 542.828125 Z M 438.25 562.679688 " fill-opacity="1" fill-rule="nonzero"/><path fill="#000000" d="M 465.5625 545.804688 L 459.253906 545.804688 L 459.253906 562.679688 L 455.925781 562.679688 L 455.925781 545.804688 L 449.664062 545.804688 L 449.664062 542.828125 L 465.5625 542.828125 Z M 465.5625 545.804688 " fill-opacity="1" fill-rule="nonzero"/><path fill="#000000" d="M 491.136719 545.804688 L 480.300781 545.804688 L 480.300781 551.175781 L 490.023438 551.175781 L 490.023438 554.195312 L 480.300781 554.195312 L 480.300781 559.660156 L 491.492188 559.660156 L 491.492188 562.679688 L 476.96875 562.679688 L 476.96875 542.828125 L 491.136719 542.828125 Z M 491.136719 545.804688 " fill-opacity="1" fill-rule="nonzero"/><path fill="#000000" d="M 510.632812 542.652344 C 513.207031 542.652344 515.515625 543.351562 517.558594 544.738281 L 516.183594 547.667969 C 514.164062 546.425781 512.230469 545.804688 510.367188 545.804688 C 509.355469 545.804688 508.554688 546.003906 507.96875 546.382812 C 507.402344 546.734375 507.125 547.246094 507.125 547.890625 C 507.125 548.546875 507.390625 549.113281 507.921875 549.578125 C 508.457031 550.054688 509.121094 550.398438 509.921875 550.601562 C 510.722656 550.8125 511.574219 551.089844 512.496094 551.441406 C 513.40625 551.777344 514.273438 552.132812 515.074219 552.507812 C 515.871094 552.863281 516.515625 553.441406 517.027344 554.242188 C 517.558594 555.019531 517.828125 555.949219 517.828125 557.039062 C 517.828125 558.792969 517.125 560.191406 515.738281 561.257812 C 514.339844 562.300781 512.542969 562.8125 510.320312 562.8125 C 508.8125 562.8125 507.347656 562.535156 505.925781 561.96875 C 504.503906 561.378906 503.273438 560.613281 502.238281 559.660156 L 503.660156 556.726562 C 504.660156 557.683594 505.757812 558.402344 506.945312 558.902344 C 508.15625 559.414062 509.3125 559.660156 510.410156 559.660156 C 511.566406 559.660156 512.464844 559.457031 513.121094 559.035156 C 513.761719 558.59375 514.097656 557.992188 514.097656 557.214844 C 514.097656 556.539062 513.828125 555.972656 513.296875 555.527344 C 512.785156 555.0625 512.140625 554.71875 511.34375 554.507812 C 510.542969 554.273438 509.667969 554.007812 508.722656 553.707031 C 507.800781 553.386719 506.945312 553.0625 506.148438 552.730469 C 505.371094 552.375 504.726562 551.820312 504.195312 551.042969 C 503.660156 550.246094 503.394531 549.300781 503.394531 548.203125 C 503.394531 546.515625 504.039062 545.171875 505.347656 544.160156 C 506.679688 543.160156 508.433594 542.652344 510.632812 542.652344 Z M 510.632812 542.652344 " fill-opacity="1" fill-rule="nonzero"/><path fill="#000000" d="M 546.121094 542.828125 L 554.023438 542.828125 C 556.511719 542.828125 558.433594 543.429688 559.796875 544.605469 C 561.1875 545.792969 561.886719 547.445312 561.886719 549.578125 C 561.886719 551.832031 561.1875 553.574219 559.796875 554.816406 C 558.433594 556.0625 556.511719 556.683594 554.023438 556.683594 L 549.453125 556.683594 L 549.453125 562.679688 L 546.121094 562.679688 Z M 549.453125 545.804688 L 549.453125 553.664062 L 553.890625 553.664062 C 557.089844 553.664062 558.6875 552.332031 558.6875 549.667969 C 558.6875 547.089844 557.089844 545.804688 553.890625 545.804688 Z M 549.453125 545.804688 " fill-opacity="1" fill-rule="nonzero"/><path fill="#000000" d="M 586.574219 558.191406 L 576.535156 558.191406 L 574.628906 562.679688 L 571.164062 562.679688 L 579.910156 542.828125 L 583.332031 542.828125 L 592.035156 562.679688 L 588.4375 562.679688 Z M 585.285156 555.21875 L 581.554688 546.382812 L 577.78125 555.21875 Z M 585.285156 555.21875 " fill-opacity="1" fill-rule="nonzero"/><path fill="#000000" d="M 615.8125 562.679688 L 612.171875 556.683594 C 611.960938 556.683594 611.652344 556.683594 611.238281 556.683594 L 606.53125 556.683594 L 606.53125 562.679688 L 603.203125 562.679688 L 603.203125 542.828125 L 611.238281 542.828125 C 613.78125 542.828125 615.746094 543.429688 617.144531 544.605469 C 618.535156 545.792969 619.234375 547.445312 619.234375 549.578125 C 619.234375 551.175781 618.878906 552.53125 618.167969 553.621094 C 617.480469 554.71875 616.480469 555.519531 615.148438 556.015625 L 619.589844 562.679688 Z M 606.53125 553.664062 L 611.238281 553.664062 C 614.460938 553.664062 616.082031 552.332031 616.082031 549.667969 C 616.082031 547.089844 614.460938 545.804688 611.238281 545.804688 L 606.53125 545.804688 Z M 606.53125 553.664062 " fill-opacity="1" fill-rule="nonzero"/><path fill="#000000" d="M 645.074219 558.191406 L 635.039062 558.191406 L 633.128906 562.679688 L 629.667969 562.679688 L 638.414062 542.828125 L 641.832031 542.828125 L 650.539062 562.679688 L 646.941406 562.679688 Z M 643.789062 555.21875 L 640.058594 546.382812 L 636.28125 555.21875 Z M 643.789062 555.21875 " fill-opacity="1" fill-rule="nonzero"/><path fill="#000000" d="M 680.878906 559.660156 L 689.496094 559.660156 L 689.496094 562.679688 L 677.550781 562.679688 L 677.550781 542.828125 L 680.878906 542.828125 Z M 680.878906 559.660156 " fill-opacity="1" fill-rule="nonzero"/><path fill="#000000" d="M 702.601562 545.625 C 704.609375 543.707031 707.097656 542.738281 710.058594 542.738281 C 713.046875 542.738281 715.542969 543.707031 717.566406 545.625 C 719.605469 547.523438 720.628906 549.890625 720.628906 552.730469 C 720.628906 555.574219 719.605469 557.972656 717.566406 559.925781 C 715.542969 561.855469 713.046875 562.8125 710.058594 562.8125 C 707.097656 562.8125 704.609375 561.855469 702.601562 559.925781 C 700.578125 557.972656 699.582031 555.574219 699.582031 552.730469 C 699.582031 549.890625 700.578125 547.523438 702.601562 545.625 Z M 710.105469 545.757812 C 708.152344 545.757812 706.464844 546.449219 705.042969 547.800781 C 703.644531 549.132812 702.953125 550.800781 702.953125 552.777344 C 702.953125 554.730469 703.664062 556.394531 705.085938 557.75 C 706.507812 559.113281 708.171875 559.792969 710.105469 559.792969 C 712.058594 559.792969 713.722656 559.113281 715.121094 557.75 C 716.511719 556.394531 717.210938 554.730469 717.210938 552.777344 C 717.210938 550.800781 716.511719 549.132812 715.121094 547.800781 C 713.722656 546.449219 712.058594 545.757812 710.105469 545.757812 Z M 710.105469 545.757812 " fill-opacity="1" fill-rule="nonzero"/><path fill="#000000" d="M 739.257812 542.652344 C 741.832031 542.652344 744.140625 543.351562 746.183594 544.738281 L 744.808594 547.667969 C 742.789062 546.425781 740.855469 545.804688 738.992188 545.804688 C 737.980469 545.804688 737.179688 546.003906 736.59375 546.382812 C 736.027344 546.734375 735.75 547.246094 735.75 547.890625 C 735.75 548.546875 736.015625 549.113281 736.546875 549.578125 C 737.082031 550.054688 737.746094 550.398438 738.546875 550.601562 C 739.347656 550.8125 740.199219 551.089844 741.121094 551.441406 C 742.03125 551.777344 742.898438 552.132812 743.699219 552.507812 C 744.496094 552.863281 745.140625 553.441406 745.652344 554.242188 C 746.183594 555.019531 746.449219 555.949219 746.449219 557.039062 C 746.449219 558.792969 745.75 560.191406 744.363281 561.257812 C 742.964844 562.300781 741.167969 562.8125 738.945312 562.8125 C 737.4375 562.8125 735.972656 562.535156 734.550781 561.96875 C 733.128906 561.378906 731.898438 560.613281 730.863281 559.660156 L 732.285156 556.726562 C 733.285156 557.683594 734.382812 558.402344 735.570312 558.902344 C 736.78125 559.414062 737.9375 559.660156 739.035156 559.660156 C 740.191406 559.660156 741.089844 559.457031 741.742188 559.035156 C 742.386719 558.59375 742.722656 557.992188 742.722656 557.214844 C 742.722656 556.539062 742.453125 555.972656 741.921875 555.527344 C 741.410156 555.0625 740.765625 554.71875 739.96875 554.507812 C 739.167969 554.273438 738.292969 554.007812 737.347656 553.707031 C 736.425781 553.386719 735.570312 553.0625 734.773438 552.730469 C 733.996094 552.375 733.351562 551.820312 732.816406 551.042969 C 732.285156 550.246094 732.019531 549.300781 732.019531 548.203125 C 732.019531 546.515625 732.664062 545.171875 733.972656 544.160156 C 735.304688 543.160156 737.058594 542.652344 739.257812 542.652344 Z M 739.257812 542.652344 " fill-opacity="1" fill-rule="nonzero"/><path fill="#000000" d="M 278.628906 584.171875 L 267.792969 584.171875 L 267.792969 589.542969 L 277.515625 589.542969 L 277.515625 592.5625 L 267.792969 592.5625 L 267.792969 598.027344 L 278.984375 598.027344 L 278.984375 601.046875 L 264.460938 601.046875 L 264.460938 581.195312 L 278.628906 581.195312 Z M 278.628906 584.171875 " fill-opacity="1" fill-rule="nonzero"/><path fill="#000000" d="M 298.128906 581.019531 C 300.703125 581.019531 303.011719 581.71875 305.054688 583.105469 L 303.679688 586.035156 C 301.65625 584.792969 299.726562 584.171875 297.859375 584.171875 C 296.851562 584.171875 296.050781 584.371094 295.464844 584.75 C 294.898438 585.101562 294.621094 585.613281 294.621094 586.257812 C 294.621094 586.914062 294.886719 587.480469 295.417969 587.945312 C 295.953125 588.421875 296.617188 588.765625 297.417969 588.964844 C 298.214844 589.175781 299.070312 589.457031 299.992188 589.808594 C 300.902344 590.144531 301.769531 590.5 302.566406 590.875 C 303.367188 591.230469 304.011719 591.808594 304.523438 592.609375 C 305.054688 593.386719 305.320312 594.316406 305.320312 595.40625 C 305.320312 597.160156 304.621094 598.558594 303.234375 599.625 C 301.835938 600.667969 300.039062 601.179688 297.816406 601.179688 C 296.308594 601.179688 294.839844 600.902344 293.421875 600.335938 C 292 599.746094 290.765625 598.980469 289.734375 598.027344 L 291.15625 595.09375 C 292.15625 596.050781 293.253906 596.769531 294.441406 597.269531 C 295.652344 597.78125 296.804688 598.027344 297.90625 598.027344 C 299.058594 598.027344 299.960938 597.824219 300.613281 597.402344 C 301.257812 596.960938 301.589844 596.359375 301.589844 595.582031 C 301.589844 594.90625 301.324219 594.339844 300.792969 593.894531 C 300.28125 593.429688 299.636719 593.085938 298.839844 592.875 C 298.039062 592.640625 297.160156 592.375 296.21875 592.074219 C 295.296875 591.753906 294.441406 591.429688 293.644531 591.097656 C 292.867188 590.742188 292.222656 590.1875 291.6875 589.410156 C 291.15625 588.613281 290.890625 587.667969 290.890625 586.570312 C 290.890625 584.882812 291.535156 583.539062 292.84375 582.527344 C 294.175781 581.527344 295.929688 581.019531 298.128906 581.019531 Z M 298.128906 581.019531 " fill-opacity="1" fill-rule="nonzero"/><path fill="#000000" d="M 331.316406 584.171875 L 325.011719 584.171875 L 325.011719 601.046875 L 321.679688 601.046875 L 321.679688 584.171875 L 315.417969 584.171875 L 315.417969 581.195312 L 331.316406 581.195312 Z M 331.316406 584.171875 " fill-opacity="1" fill-rule="nonzero"/><path fill="#000000" d="M 359.597656 581.195312 L 359.597656 592.828125 C 359.597656 595.40625 358.820312 597.449219 357.289062 598.957031 C 355.746094 600.445312 353.625 601.179688 350.941406 601.179688 C 348.277344 601.179688 346.167969 600.445312 344.632812 598.957031 C 343.089844 597.449219 342.324219 595.40625 342.324219 592.828125 L 342.324219 581.195312 L 345.65625 581.195312 L 345.65625 592.828125 C 345.65625 594.496094 346.121094 595.792969 347.078125 596.738281 C 348.054688 597.691406 349.351562 598.160156 350.984375 598.160156 C 352.605469 598.160156 353.894531 597.703125 354.847656 596.78125 C 355.792969 595.839844 356.269531 594.515625 356.269531 592.828125 L 356.269531 581.195312 Z M 359.597656 581.195312 " fill-opacity="1" fill-rule="nonzero"/><path fill="#000000" d="M 372.925781 581.195312 L 381.050781 581.195312 C 384.035156 581.195312 386.488281 582.128906 388.421875 583.992188 C 390.375 585.859375 391.351562 588.234375 391.351562 591.097656 C 391.351562 593.972656 390.375 596.359375 388.421875 598.246094 C 386.46875 600.113281 383.980469 601.046875 380.960938 601.046875 L 372.925781 601.046875 Z M 376.253906 584.171875 L 376.253906 598.027344 L 381.140625 598.027344 C 383.09375 598.027344 384.703125 597.394531 385.980469 596.117188 C 387.277344 594.816406 387.933594 593.164062 387.933594 591.144531 C 387.933594 589.132812 387.265625 587.480469 385.933594 586.167969 C 384.601562 584.835938 382.960938 584.171875 381.003906 584.171875 Z M 376.253906 584.171875 " fill-opacity="1" fill-rule="nonzero"/><path fill="#000000" d="M 403.4375 581.195312 L 406.769531 581.195312 L 406.769531 601.046875 L 403.4375 601.046875 Z M 403.4375 581.195312 " fill-opacity="1" fill-rule="nonzero"/><path fill="#000000" d="M 433.363281 596.558594 L 423.328125 596.558594 L 421.417969 601.046875 L 417.953125 601.046875 L 426.703125 581.195312 L 430.121094 581.195312 L 438.824219 601.046875 L 435.230469 601.046875 Z M 432.074219 593.585938 L 428.34375 584.75 L 424.570312 593.585938 Z M 432.074219 593.585938 " fill-opacity="1" fill-rule="nonzero"/><path fill="#000000" d="M 467.222656 601.046875 L 463.9375 601.046875 L 453.324219 586.789062 L 453.324219 601.046875 L 449.992188 601.046875 L 449.992188 581.195312 L 453.277344 581.195312 L 463.9375 595.449219 L 463.9375 581.195312 L 467.222656 581.195312 Z M 467.222656 601.046875 " fill-opacity="1" fill-rule="nonzero"/><path fill="#000000" d="M 494.535156 584.171875 L 488.230469 584.171875 L 488.230469 601.046875 L 484.898438 601.046875 L 484.898438 584.171875 L 478.636719 584.171875 L 478.636719 581.195312 L 494.535156 581.195312 Z M 494.535156 584.171875 " fill-opacity="1" fill-rule="nonzero"/><path fill="#000000" d="M 520.105469 584.171875 L 509.269531 584.171875 L 509.269531 589.542969 L 518.996094 589.542969 L 518.996094 592.5625 L 509.269531 592.5625 L 509.269531 598.027344 L 520.460938 598.027344 L 520.460938 601.046875 L 505.941406 601.046875 L 505.941406 581.195312 L 520.105469 581.195312 Z M 520.105469 584.171875 " fill-opacity="1" fill-rule="nonzero"/><path fill="#000000" d="M 539.605469 581.019531 C 542.179688 581.019531 544.488281 581.71875 546.53125 583.105469 L 545.15625 586.035156 C 543.132812 584.792969 541.203125 584.171875 539.335938 584.171875 C 538.328125 584.171875 537.527344 584.371094 536.941406 584.75 C 536.375 585.101562 536.097656 585.613281 536.097656 586.257812 C 536.097656 586.914062 536.363281 587.480469 536.894531 587.945312 C 537.429688 588.421875 538.09375 588.765625 538.894531 588.964844 C 539.691406 589.175781 540.546875 589.457031 541.46875 589.808594 C 542.378906 590.144531 543.246094 590.5 544.042969 590.875 C 544.84375 591.230469 545.488281 591.808594 546 592.609375 C 546.53125 593.386719 546.796875 594.316406 546.796875 595.40625 C 546.796875 597.160156 546.097656 598.558594 544.710938 599.625 C 543.3125 600.667969 541.511719 601.179688 539.292969 601.179688 C 537.785156 601.179688 536.316406 600.902344 534.898438 600.335938 C 533.476562 599.746094 532.242188 598.980469 531.210938 598.027344 L 532.632812 595.09375 C 533.632812 596.050781 534.730469 596.769531 535.917969 597.269531 C 537.128906 597.78125 538.28125 598.027344 539.382812 598.027344 C 540.535156 598.027344 541.4375 597.824219 542.089844 597.402344 C 542.734375 596.960938 543.066406 596.359375 543.066406 595.582031 C 543.066406 594.90625 542.800781 594.339844 542.269531 593.894531 C 541.757812 593.429688 541.113281 593.085938 540.3125 592.875 C 539.515625 592.640625 538.636719 592.375 537.695312 592.074219 C 536.773438 591.753906 535.917969 591.429688 535.117188 591.097656 C 534.339844 590.742188 533.699219 590.1875 533.164062 589.410156 C 532.632812 588.613281 532.367188 587.667969 532.367188 586.570312 C 532.367188 584.882812 533.007812 583.539062 534.320312 582.527344 C 535.652344 581.527344 537.40625 581.019531 539.605469 581.019531 Z M 539.605469 581.019531 " fill-opacity="1" fill-rule="nonzero"/></svg>