<svg xmlns="http://www.w3.org/2000/svg" xmlns:xlink="http://www.w3.org/1999/xlink" width="500" zoomAndPan="magnify" viewBox="0 0 375 374.999991" height="500" preserveAspectRatio="xMidYMid meet" version="1.0"><defs><g/><clipPath id="015ab24379"><path d="M 135.867188 135 L 186 135 L 186 190 L 135.867188 190 Z M 135.867188 135 " clip-rule="nonzero"/></clipPath><clipPath id="a7ecd37acf"><path d="M 148 120.34375 L 173 120.34375 L 173 136 L 148 136 Z M 148 120.34375 " clip-rule="nonzero"/></clipPath><clipPath id="89564cc494"><path d="M 189 135 L 239.367188 135 L 239.367188 190 L 189 190 Z M 189 135 " clip-rule="nonzero"/></clipPath><clipPath id="82e85d16ba"><path d="M 202 120.34375 L 227 120.34375 L 227 136 L 202 136 Z M 202 120.34375 " clip-rule="nonzero"/></clipPath></defs><g clip-path="url(#015ab24379)"><path fill="#a40033" d="M 164.226562 154.597656 C 165.289062 154.304688 166.390625 154.921875 166.683594 155.984375 C 169.0625 164.554688 176.511719 170.742188 185.230469 171.65625 L 185.230469 142.046875 C 185.230469 138.6875 182.507812 135.957031 179.144531 135.957031 L 141.945312 135.957031 C 138.582031 135.957031 135.855469 138.6875 135.855469 142.046875 L 135.855469 183.644531 C 135.855469 187.007812 138.582031 189.730469 141.945312 189.730469 L 179.144531 189.730469 C 182.507812 189.730469 185.230469 187.007812 185.230469 183.644531 L 185.230469 175.667969 C 174.722656 174.738281 165.695312 167.339844 162.839844 157.050781 C 162.546875 155.988281 163.164062 154.890625 164.226562 154.597656 Z M 176.027344 152.15625 C 177.523438 152.15625 178.738281 153.382812 178.738281 154.898438 C 178.738281 156.40625 177.523438 157.636719 176.027344 157.636719 C 174.527344 157.636719 173.308594 156.40625 173.308594 154.898438 C 173.308594 153.382812 174.527344 152.15625 176.027344 152.15625 Z M 176.027344 152.15625 " fill-opacity="1" fill-rule="nonzero"/></g><g clip-path="url(#a7ecd37acf)"><path fill="#000000" d="M 172.6875 135.957031 L 168.703125 135.957031 L 168.703125 132.5 C 168.703125 128.003906 165.042969 124.34375 160.546875 124.34375 C 156.050781 124.34375 152.390625 128.003906 152.390625 132.5 L 152.390625 135.957031 L 148.40625 135.957031 L 148.40625 132.5 C 148.40625 125.804688 153.855469 120.359375 160.546875 120.359375 C 167.238281 120.359375 172.691406 125.808594 172.691406 132.5 L 172.691406 135.957031 Z M 172.6875 135.957031 " fill-opacity="1" fill-rule="nonzero"/></g><g clip-path="url(#89564cc494)"><path fill="#28264c" d="M 233.011719 135.957031 L 195.8125 135.957031 C 192.449219 135.957031 189.722656 138.6875 189.722656 142.046875 L 189.722656 171.660156 C 198.441406 170.75 205.894531 164.554688 208.277344 155.984375 C 208.570312 154.921875 209.667969 154.300781 210.726562 154.597656 C 211.789062 154.890625 212.414062 155.988281 212.121094 157.050781 C 209.261719 167.339844 200.234375 174.742188 189.722656 175.667969 L 189.722656 183.644531 C 189.722656 187.007812 192.449219 189.730469 195.8125 189.730469 L 233.011719 189.730469 C 236.375 189.730469 239.101562 187.007812 239.101562 183.644531 L 239.101562 142.046875 C 239.101562 138.6875 236.375 135.957031 233.011719 135.957031 Z M 198.933594 157.636719 C 197.433594 157.636719 196.21875 156.40625 196.21875 154.898438 C 196.21875 153.382812 197.433594 152.15625 198.933594 152.15625 C 200.429688 152.15625 201.648438 153.382812 201.648438 154.898438 C 201.648438 156.40625 200.429688 157.636719 198.933594 157.636719 Z M 198.933594 157.636719 " fill-opacity="1" fill-rule="nonzero"/></g><g clip-path="url(#82e85d16ba)"><path fill="#000000" d="M 226.558594 135.957031 L 222.574219 135.957031 L 222.574219 132.5 C 222.574219 128.003906 218.914062 124.34375 214.417969 124.34375 C 209.921875 124.34375 206.261719 128.003906 206.261719 132.5 L 206.261719 135.957031 L 202.277344 135.957031 L 202.277344 132.5 C 202.277344 125.804688 207.726562 120.359375 214.417969 120.359375 C 221.113281 120.359375 226.5625 125.808594 226.5625 132.5 L 226.5625 135.957031 Z M 226.558594 135.957031 " fill-opacity="1" fill-rule="nonzero"/></g><g fill="#000000" fill-opacity="1"><g transform="translate(66.855451, 224.646182)"><g><path d="M 16.875 -8.75 L 16.875 -21.9375 L 19.84375 -21.9375 L 19.84375 -8.75 C 19.84375 -5.664062 19.125 -3.390625 17.6875 -1.921875 C 16.257812 -0.453125 14.039062 0.28125 11.03125 0.28125 C 7.988281 0.28125 5.773438 -0.4375 4.390625 -1.875 C 3.003906 -3.3125 2.3125 -5.601562 2.3125 -8.75 L 2.3125 -21.9375 L 5.28125 -21.9375 L 5.28125 -8.75 C 5.28125 -6.4375 5.707031 -4.816406 6.5625 -3.890625 C 7.414062 -2.972656 8.90625 -2.515625 11.03125 -2.515625 C 13.175781 -2.515625 14.6875 -2.972656 15.5625 -3.890625 C 16.4375 -4.816406 16.875 -6.4375 16.875 -8.75 Z M 16.875 -8.75 "/></g></g></g><g fill="#000000" fill-opacity="1"><g transform="translate(93.100445, 224.646182)"><g><path d="M 13.09375 -12.25 L 13.09375 -10.015625 L 1.921875 -10.015625 L 1.921875 -12.25 Z M 13.09375 -12.25 "/></g></g></g><g fill="#000000" fill-opacity="1"><g transform="translate(112.207062, 224.646182)"><g><path d="M 11.234375 -2.515625 C 12.191406 -2.515625 13.203125 -2.625 14.265625 -2.84375 C 15.328125 -3.070312 16.3125 -3.375 17.21875 -3.75 L 17.21875 -1.078125 C 15.9375 -0.566406 14.796875 -0.210938 13.796875 -0.015625 C 12.804688 0.179688 11.773438 0.28125 10.703125 0.28125 C 7.347656 0.28125 4.984375 -0.585938 3.609375 -2.328125 C 2.234375 -4.066406 1.546875 -6.96875 1.546875 -11.03125 C 1.546875 -14.925781 2.34375 -17.773438 3.9375 -19.578125 C 5.53125 -21.390625 8.078125 -22.296875 11.578125 -22.296875 C 12.648438 -22.296875 13.609375 -22.269531 14.453125 -22.21875 C 15.296875 -22.175781 16.054688 -22.097656 16.734375 -21.984375 L 16.734375 -19.359375 C 15.910156 -19.453125 15.082031 -19.515625 14.25 -19.546875 C 13.425781 -19.578125 12.535156 -19.59375 11.578125 -19.59375 C 8.972656 -19.59375 7.15625 -18.945312 6.125 -17.65625 C 5.09375 -16.363281 4.578125 -14.15625 4.578125 -11.03125 C 4.578125 -7.851562 5.046875 -5.640625 5.984375 -4.390625 C 6.921875 -3.140625 8.671875 -2.515625 11.234375 -2.515625 Z M 11.234375 -2.515625 "/></g></g></g><g fill="#000000" fill-opacity="1"><g transform="translate(134.427968, 224.646182)"><g><path d="M 21.140625 -11.03125 C 21.140625 -7.039062 20.375 -4.15625 18.84375 -2.375 C 17.320312 -0.601562 14.832031 0.28125 11.375 0.28125 C 7.664062 0.28125 5.101562 -0.539062 3.6875 -2.1875 C 2.28125 -3.832031 1.578125 -6.78125 1.578125 -11.03125 C 1.578125 -14.988281 2.34375 -17.851562 3.875 -19.625 C 5.414062 -21.40625 7.914062 -22.296875 11.375 -22.296875 C 15.082031 -22.296875 17.632812 -21.472656 19.03125 -19.828125 C 20.4375 -18.179688 21.140625 -15.25 21.140625 -11.03125 Z M 5.640625 -4.6875 C 6.078125 -3.894531 6.726562 -3.332031 7.59375 -3 C 8.457031 -2.675781 9.71875 -2.515625 11.375 -2.515625 C 13.96875 -2.515625 15.738281 -3.140625 16.6875 -4.390625 C 17.644531 -5.640625 18.125 -7.851562 18.125 -11.03125 C 18.125 -12.613281 18.039062 -13.910156 17.875 -14.921875 C 17.71875 -15.941406 17.460938 -16.765625 17.109375 -17.390625 C 16.671875 -18.179688 16.023438 -18.742188 15.171875 -19.078125 C 14.316406 -19.421875 13.050781 -19.59375 11.375 -19.59375 C 8.757812 -19.59375 6.972656 -18.960938 6.015625 -17.703125 C 5.054688 -16.441406 4.578125 -14.21875 4.578125 -11.03125 C 4.578125 -9.4375 4.660156 -8.128906 4.828125 -7.109375 C 4.992188 -6.097656 5.265625 -5.289062 5.640625 -4.6875 Z M 5.640625 -4.6875 "/></g></g></g><g fill="#000000" fill-opacity="1"><g transform="translate(161.232844, 224.646182)"><g><path d="M 23.203125 -21.9375 L 23.203125 0 L 20.40625 0 L 20.40625 -17.296875 L 14.140625 -4.375 L 11.578125 -4.375 L 5.3125 -17.328125 L 5.3125 0 L 2.515625 0 L 2.515625 -21.9375 L 6.265625 -21.9375 L 12.921875 -7.984375 L 19.59375 -21.9375 Z M 23.203125 -21.9375 "/></g></g></g><g fill="#000000" fill-opacity="1"><g transform="translate(191.047036, 224.646182)"><g><path d="M 23.203125 -21.9375 L 23.203125 0 L 20.40625 0 L 20.40625 -17.296875 L 14.140625 -4.375 L 11.578125 -4.375 L 5.3125 -17.328125 L 5.3125 0 L 2.515625 0 L 2.515625 -21.9375 L 6.265625 -21.9375 L 12.921875 -7.984375 L 19.59375 -21.9375 Z M 23.203125 -21.9375 "/></g></g></g><g fill="#000000" fill-opacity="1"><g transform="translate(220.861227, 224.646182)"><g><path d="M 17.078125 -2.796875 L 17.078125 0 L 2.515625 0 L 2.515625 -21.9375 L 16.765625 -21.9375 L 16.765625 -19.25 L 5.5 -19.25 L 5.5 -12.53125 L 15.46875 -12.53125 L 15.46875 -9.90625 L 5.5 -9.90625 L 5.5 -2.796875 Z M 17.078125 -2.796875 "/></g></g></g><g fill="#000000" fill-opacity="1"><g transform="translate(243.257096, 224.646182)"><g><path d="M 5.5 -7.875 L 5.5 0 L 2.515625 0 L 2.515625 -21.9375 L 9.96875 -21.9375 C 13.070312 -21.9375 15.296875 -21.40625 16.640625 -20.34375 C 17.984375 -19.289062 18.65625 -17.535156 18.65625 -15.078125 C 18.65625 -13.171875 18.226562 -11.648438 17.375 -10.515625 C 16.519531 -9.378906 15.234375 -8.613281 13.515625 -8.21875 L 19.25 0 L 15.6875 0 L 10.359375 -7.875 Z M 15.640625 -15.078125 C 15.640625 -16.578125 15.207031 -17.644531 14.34375 -18.28125 C 13.488281 -18.925781 12.03125 -19.25 9.96875 -19.25 L 5.5 -19.25 L 5.5 -10.5 L 9.96875 -10.5 C 11.976562 -10.5 13.425781 -10.859375 14.3125 -11.578125 C 15.195312 -12.304688 15.640625 -13.472656 15.640625 -15.078125 Z M 15.640625 -15.078125 "/></g></g></g><g fill="#000000" fill-opacity="1"><g transform="translate(267.612525, 224.646182)"><g><path d="M 11.234375 -2.515625 C 12.191406 -2.515625 13.203125 -2.625 14.265625 -2.84375 C 15.328125 -3.070312 16.3125 -3.375 17.21875 -3.75 L 17.21875 -1.078125 C 15.9375 -0.566406 14.796875 -0.210938 13.796875 -0.015625 C 12.804688 0.179688 11.773438 0.28125 10.703125 0.28125 C 7.347656 0.28125 4.984375 -0.585938 3.609375 -2.328125 C 2.234375 -4.066406 1.546875 -6.96875 1.546875 -11.03125 C 1.546875 -14.925781 2.34375 -17.773438 3.9375 -19.578125 C 5.53125 -21.390625 8.078125 -22.296875 11.578125 -22.296875 C 12.648438 -22.296875 13.609375 -22.269531 14.453125 -22.21875 C 15.296875 -22.175781 16.054688 -22.097656 16.734375 -21.984375 L 16.734375 -19.359375 C 15.910156 -19.453125 15.082031 -19.515625 14.25 -19.546875 C 13.425781 -19.578125 12.535156 -19.59375 11.578125 -19.59375 C 8.972656 -19.59375 7.15625 -18.945312 6.125 -17.65625 C 5.09375 -16.363281 4.578125 -14.15625 4.578125 -11.03125 C 4.578125 -7.851562 5.046875 -5.640625 5.984375 -4.390625 C 6.921875 -3.140625 8.671875 -2.515625 11.234375 -2.515625 Z M 11.234375 -2.515625 "/></g></g></g><g fill="#000000" fill-opacity="1"><g transform="translate(289.833425, 224.646182)"><g><path d="M 17.078125 -2.796875 L 17.078125 0 L 2.515625 0 L 2.515625 -21.9375 L 16.765625 -21.9375 L 16.765625 -19.25 L 5.5 -19.25 L 5.5 -12.53125 L 15.46875 -12.53125 L 15.46875 -9.90625 L 5.5 -9.90625 L 5.5 -2.796875 Z M 17.078125 -2.796875 "/></g></g></g><g fill="#000000" fill-opacity="1"><g transform="translate(66.87755, 243.372392)"><g><path d="M 0.921875 -6.984375 L 3.78125 -6.984375 C 4.832031 -6.984375 5.695312 -6.65625 6.375 -6 C 7.0625 -5.34375 7.40625 -4.507812 7.40625 -3.5 C 7.40625 -2.488281 7.0625 -1.648438 6.375 -0.984375 C 5.6875 -0.328125 4.8125 0 3.75 0 L 0.921875 0 Z M 2.09375 -5.9375 L 2.09375 -1.0625 L 3.8125 -1.0625 C 4.5 -1.0625 5.066406 -1.285156 5.515625 -1.734375 C 5.972656 -2.191406 6.203125 -2.773438 6.203125 -3.484375 C 6.203125 -4.191406 5.96875 -4.773438 5.5 -5.234375 C 5.03125 -5.703125 4.453125 -5.9375 3.765625 -5.9375 Z M 2.09375 -5.9375 "/></g></g></g><g fill="#000000" fill-opacity="1"><g transform="translate(77.614149, 243.372392)"><g><path d="M 5.90625 -5.9375 L 2.09375 -5.9375 L 2.09375 -4.046875 L 5.515625 -4.046875 L 5.515625 -2.984375 L 2.09375 -2.984375 L 2.09375 -1.0625 L 6.03125 -1.0625 L 6.03125 0 L 0.921875 0 L 0.921875 -6.984375 L 5.90625 -6.984375 Z M 5.90625 -5.9375 "/></g></g></g><g fill="#000000" fill-opacity="1"><g transform="translate(87.162599, 243.372392)"><g/></g></g><g fill="#000000" fill-opacity="1"><g transform="translate(92.737248, 243.372392)"><g><path d="M 2.09375 -1.0625 L 5.125 -1.0625 L 5.125 0 L 0.921875 0 L 0.921875 -6.984375 L 2.09375 -6.984375 Z M 2.09375 -1.0625 "/></g></g></g><g fill="#000000" fill-opacity="1"><g transform="translate(101.067602, 243.372392)"><g><path d="M 1.40625 -6 C 2.113281 -6.675781 2.988281 -7.015625 4.03125 -7.015625 C 5.082031 -7.015625 5.960938 -6.675781 6.671875 -6 C 7.390625 -5.332031 7.75 -4.5 7.75 -3.5 C 7.75 -2.5 7.390625 -1.65625 6.671875 -0.96875 C 5.960938 -0.289062 5.082031 0.046875 4.03125 0.046875 C 2.988281 0.046875 2.113281 -0.289062 1.40625 -0.96875 C 0.695312 -1.65625 0.34375 -2.5 0.34375 -3.5 C 0.34375 -4.5 0.695312 -5.332031 1.40625 -6 Z M 4.046875 -5.953125 C 3.359375 -5.953125 2.765625 -5.710938 2.265625 -5.234375 C 1.773438 -4.765625 1.53125 -4.179688 1.53125 -3.484375 C 1.53125 -2.796875 1.78125 -2.210938 2.28125 -1.734375 C 2.78125 -1.253906 3.367188 -1.015625 4.046875 -1.015625 C 4.734375 -1.015625 5.320312 -1.253906 5.8125 -1.734375 C 6.300781 -2.210938 6.546875 -2.796875 6.546875 -3.484375 C 6.546875 -4.179688 6.300781 -4.765625 5.8125 -5.234375 C 5.320312 -5.710938 4.734375 -5.953125 4.046875 -5.953125 Z M 4.046875 -5.953125 "/></g></g></g><g fill="#000000" fill-opacity="1"><g transform="translate(112.153659, 243.372392)"><g><path d="M 3.21875 -7.046875 C 4.125 -7.046875 4.9375 -6.800781 5.65625 -6.3125 L 5.171875 -5.28125 C 4.460938 -5.71875 3.78125 -5.9375 3.125 -5.9375 C 2.769531 -5.9375 2.488281 -5.867188 2.28125 -5.734375 C 2.082031 -5.609375 1.984375 -5.429688 1.984375 -5.203125 C 1.984375 -4.972656 2.078125 -4.773438 2.265625 -4.609375 C 2.453125 -4.441406 2.6875 -4.320312 2.96875 -4.25 C 3.25 -4.175781 3.550781 -4.078125 3.875 -3.953125 C 4.195312 -3.835938 4.5 -3.710938 4.78125 -3.578125 C 5.0625 -3.453125 5.289062 -3.25 5.46875 -2.96875 C 5.65625 -2.695312 5.75 -2.367188 5.75 -1.984375 C 5.75 -1.367188 5.503906 -0.875 5.015625 -0.5 C 4.523438 -0.132812 3.890625 0.046875 3.109375 0.046875 C 2.578125 0.046875 2.0625 -0.0507812 1.5625 -0.25 C 1.0625 -0.457031 0.628906 -0.726562 0.265625 -1.0625 L 0.765625 -2.09375 C 1.117188 -1.757812 1.503906 -1.503906 1.921875 -1.328125 C 2.347656 -1.148438 2.753906 -1.0625 3.140625 -1.0625 C 3.546875 -1.0625 3.863281 -1.132812 4.09375 -1.28125 C 4.320312 -1.4375 4.4375 -1.648438 4.4375 -1.921875 C 4.4375 -2.160156 4.34375 -2.359375 4.15625 -2.515625 C 3.976562 -2.679688 3.75 -2.800781 3.46875 -2.875 C 3.1875 -2.957031 2.878906 -3.050781 2.546875 -3.15625 C 2.222656 -3.269531 1.921875 -3.382812 1.640625 -3.5 C 1.367188 -3.625 1.140625 -3.820312 0.953125 -4.09375 C 0.765625 -4.375 0.671875 -4.707031 0.671875 -5.09375 C 0.671875 -5.6875 0.898438 -6.160156 1.359375 -6.515625 C 1.828125 -6.867188 2.445312 -7.046875 3.21875 -7.046875 Z M 3.21875 -7.046875 "/></g></g></g><g fill="#000000" fill-opacity="1"><g transform="translate(121.362644, 243.372392)"><g/></g></g><g fill="#000000" fill-opacity="1"><g transform="translate(126.937296, 243.372392)"><g><path d="M 5.90625 -5.9375 L 2.09375 -5.9375 L 2.09375 -4.046875 L 5.515625 -4.046875 L 5.515625 -2.984375 L 2.09375 -2.984375 L 2.09375 -1.0625 L 6.03125 -1.0625 L 6.03125 0 L 0.921875 0 L 0.921875 -6.984375 L 5.90625 -6.984375 Z M 5.90625 -5.9375 "/></g></g></g><g fill="#000000" fill-opacity="1"><g transform="translate(136.485748, 243.372392)"><g><path d="M 3.21875 -7.046875 C 4.125 -7.046875 4.9375 -6.800781 5.65625 -6.3125 L 5.171875 -5.28125 C 4.460938 -5.71875 3.78125 -5.9375 3.125 -5.9375 C 2.769531 -5.9375 2.488281 -5.867188 2.28125 -5.734375 C 2.082031 -5.609375 1.984375 -5.429688 1.984375 -5.203125 C 1.984375 -4.972656 2.078125 -4.773438 2.265625 -4.609375 C 2.453125 -4.441406 2.6875 -4.320312 2.96875 -4.25 C 3.25 -4.175781 3.550781 -4.078125 3.875 -3.953125 C 4.195312 -3.835938 4.5 -3.710938 4.78125 -3.578125 C 5.0625 -3.453125 5.289062 -3.25 5.46875 -2.96875 C 5.65625 -2.695312 5.75 -2.367188 5.75 -1.984375 C 5.75 -1.367188 5.503906 -0.875 5.015625 -0.5 C 4.523438 -0.132812 3.890625 0.046875 3.109375 0.046875 C 2.578125 0.046875 2.0625 -0.0507812 1.5625 -0.25 C 1.0625 -0.457031 0.628906 -0.726562 0.265625 -1.0625 L 0.765625 -2.09375 C 1.117188 -1.757812 1.503906 -1.503906 1.921875 -1.328125 C 2.347656 -1.148438 2.753906 -1.0625 3.140625 -1.0625 C 3.546875 -1.0625 3.863281 -1.132812 4.09375 -1.28125 C 4.320312 -1.4375 4.4375 -1.648438 4.4375 -1.921875 C 4.4375 -2.160156 4.34375 -2.359375 4.15625 -2.515625 C 3.976562 -2.679688 3.75 -2.800781 3.46875 -2.875 C 3.1875 -2.957031 2.878906 -3.050781 2.546875 -3.15625 C 2.222656 -3.269531 1.921875 -3.382812 1.640625 -3.5 C 1.367188 -3.625 1.140625 -3.820312 0.953125 -4.09375 C 0.765625 -4.375 0.671875 -4.707031 0.671875 -5.09375 C 0.671875 -5.6875 0.898438 -6.160156 1.359375 -6.515625 C 1.828125 -6.867188 2.445312 -7.046875 3.21875 -7.046875 Z M 3.21875 -7.046875 "/></g></g></g><g fill="#000000" fill-opacity="1"><g transform="translate(145.694733, 243.372392)"><g><path d="M 5.6875 -5.9375 L 3.46875 -5.9375 L 3.46875 0 L 2.296875 0 L 2.296875 -5.9375 L 0.09375 -5.9375 L 0.09375 -6.984375 L 5.6875 -6.984375 Z M 5.6875 -5.9375 "/></g></g></g><g fill="#000000" fill-opacity="1"><g transform="translate(154.474382, 243.372392)"><g><path d="M 6.859375 -6.984375 L 6.859375 -2.890625 C 6.859375 -1.984375 6.585938 -1.265625 6.046875 -0.734375 C 5.503906 -0.210938 4.757812 0.046875 3.8125 0.046875 C 2.875 0.046875 2.132812 -0.210938 1.59375 -0.734375 C 1.050781 -1.265625 0.78125 -1.984375 0.78125 -2.890625 L 0.78125 -6.984375 L 1.953125 -6.984375 L 1.953125 -2.890625 C 1.953125 -2.304688 2.117188 -1.847656 2.453125 -1.515625 C 2.796875 -1.179688 3.253906 -1.015625 3.828125 -1.015625 C 4.398438 -1.015625 4.851562 -1.175781 5.1875 -1.5 C 5.519531 -1.832031 5.6875 -2.296875 5.6875 -2.890625 L 5.6875 -6.984375 Z M 6.859375 -6.984375 "/></g></g></g><g fill="#000000" fill-opacity="1"><g transform="translate(165.101154, 243.372392)"><g><path d="M 0.921875 -6.984375 L 3.78125 -6.984375 C 4.832031 -6.984375 5.695312 -6.65625 6.375 -6 C 7.0625 -5.34375 7.40625 -4.507812 7.40625 -3.5 C 7.40625 -2.488281 7.0625 -1.648438 6.375 -0.984375 C 5.6875 -0.328125 4.8125 0 3.75 0 L 0.921875 0 Z M 2.09375 -5.9375 L 2.09375 -1.0625 L 3.8125 -1.0625 C 4.5 -1.0625 5.066406 -1.285156 5.515625 -1.734375 C 5.972656 -2.191406 6.203125 -2.773438 6.203125 -3.484375 C 6.203125 -4.191406 5.96875 -4.773438 5.5 -5.234375 C 5.03125 -5.703125 4.453125 -5.9375 3.765625 -5.9375 Z M 2.09375 -5.9375 "/></g></g></g><g fill="#000000" fill-opacity="1"><g transform="translate(175.837748, 243.372392)"><g><path d="M 2.09375 0 L 0.921875 0 L 0.921875 -6.984375 L 2.09375 -6.984375 Z M 2.09375 0 "/></g></g></g><g fill="#000000" fill-opacity="1"><g transform="translate(181.851709, 243.372392)"><g><path d="M 5.4375 -1.578125 L 1.90625 -1.578125 L 1.234375 0 L 0.015625 0 L 3.09375 -6.984375 L 4.296875 -6.984375 L 7.359375 0 L 6.09375 0 Z M 4.984375 -2.625 L 3.671875 -5.734375 L 2.34375 -2.625 Z M 4.984375 -2.625 "/></g></g></g><g fill="#000000" fill-opacity="1"><g transform="translate(192.218877, 243.372392)"><g><path d="M 6.984375 0 L 5.828125 0 L 2.09375 -5.015625 L 2.09375 0 L 0.921875 0 L 0.921875 -6.984375 L 2.078125 -6.984375 L 5.828125 -1.96875 L 5.828125 -6.984375 L 6.984375 -6.984375 Z M 6.984375 0 "/></g></g></g><g fill="#000000" fill-opacity="1"><g transform="translate(203.12521, 243.372392)"><g><path d="M 5.6875 -5.9375 L 3.46875 -5.9375 L 3.46875 0 L 2.296875 0 L 2.296875 -5.9375 L 0.09375 -5.9375 L 0.09375 -6.984375 L 5.6875 -6.984375 Z M 5.6875 -5.9375 "/></g></g></g><g fill="#000000" fill-opacity="1"><g transform="translate(211.904854, 243.372392)"><g><path d="M 5.90625 -5.9375 L 2.09375 -5.9375 L 2.09375 -4.046875 L 5.515625 -4.046875 L 5.515625 -2.984375 L 2.09375 -2.984375 L 2.09375 -1.0625 L 6.03125 -1.0625 L 6.03125 0 L 0.921875 0 L 0.921875 -6.984375 L 5.90625 -6.984375 Z M 5.90625 -5.9375 "/></g></g></g><g fill="#000000" fill-opacity="1"><g transform="translate(221.4533, 243.372392)"><g><path d="M 3.21875 -7.046875 C 4.125 -7.046875 4.9375 -6.800781 5.65625 -6.3125 L 5.171875 -5.28125 C 4.460938 -5.71875 3.78125 -5.9375 3.125 -5.9375 C 2.769531 -5.9375 2.488281 -5.867188 2.28125 -5.734375 C 2.082031 -5.609375 1.984375 -5.429688 1.984375 -5.203125 C 1.984375 -4.972656 2.078125 -4.773438 2.265625 -4.609375 C 2.453125 -4.441406 2.6875 -4.320312 2.96875 -4.25 C 3.25 -4.175781 3.550781 -4.078125 3.875 -3.953125 C 4.195312 -3.835938 4.5 -3.710938 4.78125 -3.578125 C 5.0625 -3.453125 5.289062 -3.25 5.46875 -2.96875 C 5.65625 -2.695312 5.75 -2.367188 5.75 -1.984375 C 5.75 -1.367188 5.503906 -0.875 5.015625 -0.5 C 4.523438 -0.132812 3.890625 0.046875 3.109375 0.046875 C 2.578125 0.046875 2.0625 -0.0507812 1.5625 -0.25 C 1.0625 -0.457031 0.628906 -0.726562 0.265625 -1.0625 L 0.765625 -2.09375 C 1.117188 -1.757812 1.503906 -1.503906 1.921875 -1.328125 C 2.347656 -1.148438 2.753906 -1.0625 3.140625 -1.0625 C 3.546875 -1.0625 3.863281 -1.132812 4.09375 -1.28125 C 4.320312 -1.4375 4.4375 -1.648438 4.4375 -1.921875 C 4.4375 -2.160156 4.34375 -2.359375 4.15625 -2.515625 C 3.976562 -2.679688 3.75 -2.800781 3.46875 -2.875 C 3.1875 -2.957031 2.878906 -3.050781 2.546875 -3.15625 C 2.222656 -3.269531 1.921875 -3.382812 1.640625 -3.5 C 1.367188 -3.625 1.140625 -3.820312 0.953125 -4.09375 C 0.765625 -4.375 0.671875 -4.707031 0.671875 -5.09375 C 0.671875 -5.6875 0.898438 -6.160156 1.359375 -6.515625 C 1.828125 -6.867188 2.445312 -7.046875 3.21875 -7.046875 Z M 3.21875 -7.046875 "/></g></g></g><g fill="#000000" fill-opacity="1"><g transform="translate(230.66228, 243.372392)"><g/></g></g><g fill="#000000" fill-opacity="1"><g transform="translate(236.236925, 243.372392)"><g><path d="M 0.921875 -6.984375 L 3.703125 -6.984375 C 4.578125 -6.984375 5.253906 -6.773438 5.734375 -6.359375 C 6.222656 -5.941406 6.46875 -5.359375 6.46875 -4.609375 C 6.46875 -3.816406 6.222656 -3.203125 5.734375 -2.765625 C 5.253906 -2.328125 4.578125 -2.109375 3.703125 -2.109375 L 2.09375 -2.109375 L 2.09375 0 L 0.921875 0 Z M 2.09375 -5.9375 L 2.09375 -3.171875 L 3.65625 -3.171875 C 4.78125 -3.171875 5.34375 -3.640625 5.34375 -4.578125 C 5.34375 -5.484375 4.78125 -5.9375 3.65625 -5.9375 Z M 2.09375 -5.9375 "/></g></g></g><g fill="#000000" fill-opacity="1"><g transform="translate(245.95511, 243.372392)"><g><path d="M 5.4375 -1.578125 L 1.90625 -1.578125 L 1.234375 0 L 0.015625 0 L 3.09375 -6.984375 L 4.296875 -6.984375 L 7.359375 0 L 6.09375 0 Z M 4.984375 -2.625 L 3.671875 -5.734375 L 2.34375 -2.625 Z M 4.984375 -2.625 "/></g></g></g><g fill="#000000" fill-opacity="1"><g transform="translate(256.322278, 243.372392)"><g><path d="M 5.359375 0 L 4.078125 -2.109375 C 4.003906 -2.109375 3.894531 -2.109375 3.75 -2.109375 L 2.09375 -2.109375 L 2.09375 0 L 0.921875 0 L 0.921875 -6.984375 L 3.75 -6.984375 C 4.644531 -6.984375 5.335938 -6.773438 5.828125 -6.359375 C 6.316406 -5.941406 6.5625 -5.359375 6.5625 -4.609375 C 6.5625 -4.046875 6.4375 -3.570312 6.1875 -3.1875 C 5.945312 -2.800781 5.59375 -2.519531 5.125 -2.34375 L 6.6875 0 Z M 2.09375 -3.171875 L 3.75 -3.171875 C 4.882812 -3.171875 5.453125 -3.640625 5.453125 -4.578125 C 5.453125 -5.484375 4.882812 -5.9375 3.75 -5.9375 L 2.09375 -5.9375 Z M 2.09375 -3.171875 "/></g></g></g><g fill="#000000" fill-opacity="1"><g transform="translate(266.5397, 243.372392)"><g><path d="M 5.4375 -1.578125 L 1.90625 -1.578125 L 1.234375 0 L 0.015625 0 L 3.09375 -6.984375 L 4.296875 -6.984375 L 7.359375 0 L 6.09375 0 Z M 4.984375 -2.625 L 3.671875 -5.734375 L 2.34375 -2.625 Z M 4.984375 -2.625 "/></g></g></g><g fill="#000000" fill-opacity="1"><g transform="translate(276.906879, 243.372392)"><g/></g></g><g fill="#000000" fill-opacity="1"><g transform="translate(282.481525, 243.372392)"><g><path d="M 2.09375 -1.0625 L 5.125 -1.0625 L 5.125 0 L 0.921875 0 L 0.921875 -6.984375 L 2.09375 -6.984375 Z M 2.09375 -1.0625 "/></g></g></g><g fill="#000000" fill-opacity="1"><g transform="translate(290.811884, 243.372392)"><g><path d="M 1.40625 -6 C 2.113281 -6.675781 2.988281 -7.015625 4.03125 -7.015625 C 5.082031 -7.015625 5.960938 -6.675781 6.671875 -6 C 7.390625 -5.332031 7.75 -4.5 7.75 -3.5 C 7.75 -2.5 7.390625 -1.65625 6.671875 -0.96875 C 5.960938 -0.289062 5.082031 0.046875 4.03125 0.046875 C 2.988281 0.046875 2.113281 -0.289062 1.40625 -0.96875 C 0.695312 -1.65625 0.34375 -2.5 0.34375 -3.5 C 0.34375 -4.5 0.695312 -5.332031 1.40625 -6 Z M 4.046875 -5.953125 C 3.359375 -5.953125 2.765625 -5.710938 2.265625 -5.234375 C 1.773438 -4.765625 1.53125 -4.179688 1.53125 -3.484375 C 1.53125 -2.796875 1.78125 -2.210938 2.28125 -1.734375 C 2.78125 -1.253906 3.367188 -1.015625 4.046875 -1.015625 C 4.734375 -1.015625 5.320312 -1.253906 5.8125 -1.734375 C 6.300781 -2.210938 6.546875 -2.796875 6.546875 -3.484375 C 6.546875 -4.179688 6.300781 -4.765625 5.8125 -5.234375 C 5.320312 -5.710938 4.734375 -5.953125 4.046875 -5.953125 Z M 4.046875 -5.953125 "/></g></g></g><g fill="#000000" fill-opacity="1"><g transform="translate(301.897936, 243.372392)"><g><path d="M 3.21875 -7.046875 C 4.125 -7.046875 4.9375 -6.800781 5.65625 -6.3125 L 5.171875 -5.28125 C 4.460938 -5.71875 3.78125 -5.9375 3.125 -5.9375 C 2.769531 -5.9375 2.488281 -5.867188 2.28125 -5.734375 C 2.082031 -5.609375 1.984375 -5.429688 1.984375 -5.203125 C 1.984375 -4.972656 2.078125 -4.773438 2.265625 -4.609375 C 2.453125 -4.441406 2.6875 -4.320312 2.96875 -4.25 C 3.25 -4.175781 3.550781 -4.078125 3.875 -3.953125 C 4.195312 -3.835938 4.5 -3.710938 4.78125 -3.578125 C 5.0625 -3.453125 5.289062 -3.25 5.46875 -2.96875 C 5.65625 -2.695312 5.75 -2.367188 5.75 -1.984375 C 5.75 -1.367188 5.503906 -0.875 5.015625 -0.5 C 4.523438 -0.132812 3.890625 0.046875 3.109375 0.046875 C 2.578125 0.046875 2.0625 -0.0507812 1.5625 -0.25 C 1.0625 -0.457031 0.628906 -0.726562 0.265625 -1.0625 L 0.765625 -2.09375 C 1.117188 -1.757812 1.503906 -1.503906 1.921875 -1.328125 C 2.347656 -1.148438 2.753906 -1.0625 3.140625 -1.0625 C 3.546875 -1.0625 3.863281 -1.132812 4.09375 -1.28125 C 4.320312 -1.4375 4.4375 -1.648438 4.4375 -1.921875 C 4.4375 -2.160156 4.34375 -2.359375 4.15625 -2.515625 C 3.976562 -2.679688 3.75 -2.800781 3.46875 -2.875 C 3.1875 -2.957031 2.878906 -3.050781 2.546875 -3.15625 C 2.222656 -3.269531 1.921875 -3.382812 1.640625 -3.5 C 1.367188 -3.625 1.140625 -3.820312 0.953125 -4.09375 C 0.765625 -4.375 0.671875 -4.707031 0.671875 -5.09375 C 0.671875 -5.6875 0.898438 -6.160156 1.359375 -6.515625 C 1.828125 -6.867188 2.445312 -7.046875 3.21875 -7.046875 Z M 3.21875 -7.046875 "/></g></g></g><g fill="#000000" fill-opacity="1"><g transform="translate(137.131452, 256.872391)"><g><path d="M 5.90625 -5.9375 L 2.09375 -5.9375 L 2.09375 -4.046875 L 5.515625 -4.046875 L 5.515625 -2.984375 L 2.09375 -2.984375 L 2.09375 -1.0625 L 6.03125 -1.0625 L 6.03125 0 L 0.921875 0 L 0.921875 -6.984375 L 5.90625 -6.984375 Z M 5.90625 -5.9375 "/></g></g></g><g fill="#000000" fill-opacity="1"><g transform="translate(146.679902, 256.872391)"><g><path d="M 3.21875 -7.046875 C 4.125 -7.046875 4.9375 -6.800781 5.65625 -6.3125 L 5.171875 -5.28125 C 4.460938 -5.71875 3.78125 -5.9375 3.125 -5.9375 C 2.769531 -5.9375 2.488281 -5.867188 2.28125 -5.734375 C 2.082031 -5.609375 1.984375 -5.429688 1.984375 -5.203125 C 1.984375 -4.972656 2.078125 -4.773438 2.265625 -4.609375 C 2.453125 -4.441406 2.6875 -4.320312 2.96875 -4.25 C 3.25 -4.175781 3.550781 -4.078125 3.875 -3.953125 C 4.195312 -3.835938 4.5 -3.710938 4.78125 -3.578125 C 5.0625 -3.453125 5.289062 -3.25 5.46875 -2.96875 C 5.65625 -2.695312 5.75 -2.367188 5.75 -1.984375 C 5.75 -1.367188 5.503906 -0.875 5.015625 -0.5 C 4.523438 -0.132812 3.890625 0.046875 3.109375 0.046875 C 2.578125 0.046875 2.0625 -0.0507812 1.5625 -0.25 C 1.0625 -0.457031 0.628906 -0.726562 0.265625 -1.0625 L 0.765625 -2.09375 C 1.117188 -1.757812 1.503906 -1.503906 1.921875 -1.328125 C 2.347656 -1.148438 2.753906 -1.0625 3.140625 -1.0625 C 3.546875 -1.0625 3.863281 -1.132812 4.09375 -1.28125 C 4.320312 -1.4375 4.4375 -1.648438 4.4375 -1.921875 C 4.4375 -2.160156 4.34375 -2.359375 4.15625 -2.515625 C 3.976562 -2.679688 3.75 -2.800781 3.46875 -2.875 C 3.1875 -2.957031 2.878906 -3.050781 2.546875 -3.15625 C 2.222656 -3.269531 1.921875 -3.382812 1.640625 -3.5 C 1.367188 -3.625 1.140625 -3.820312 0.953125 -4.09375 C 0.765625 -4.375 0.671875 -4.707031 0.671875 -5.09375 C 0.671875 -5.6875 0.898438 -6.160156 1.359375 -6.515625 C 1.828125 -6.867188 2.445312 -7.046875 3.21875 -7.046875 Z M 3.21875 -7.046875 "/></g></g></g><g fill="#000000" fill-opacity="1"><g transform="translate(155.888886, 256.872391)"><g><path d="M 5.6875 -5.9375 L 3.46875 -5.9375 L 3.46875 0 L 2.296875 0 L 2.296875 -5.9375 L 0.09375 -5.9375 L 0.09375 -6.984375 L 5.6875 -6.984375 Z M 5.6875 -5.9375 "/></g></g></g><g fill="#000000" fill-opacity="1"><g transform="translate(164.668533, 256.872391)"><g><path d="M 6.859375 -6.984375 L 6.859375 -2.890625 C 6.859375 -1.984375 6.585938 -1.265625 6.046875 -0.734375 C 5.503906 -0.210938 4.757812 0.046875 3.8125 0.046875 C 2.875 0.046875 2.132812 -0.210938 1.59375 -0.734375 C 1.050781 -1.265625 0.78125 -1.984375 0.78125 -2.890625 L 0.78125 -6.984375 L 1.953125 -6.984375 L 1.953125 -2.890625 C 1.953125 -2.304688 2.117188 -1.847656 2.453125 -1.515625 C 2.796875 -1.179688 3.253906 -1.015625 3.828125 -1.015625 C 4.398438 -1.015625 4.851562 -1.175781 5.1875 -1.5 C 5.519531 -1.832031 5.6875 -2.296875 5.6875 -2.890625 L 5.6875 -6.984375 Z M 6.859375 -6.984375 "/></g></g></g><g fill="#000000" fill-opacity="1"><g transform="translate(175.295304, 256.872391)"><g><path d="M 0.921875 -6.984375 L 3.78125 -6.984375 C 4.832031 -6.984375 5.695312 -6.65625 6.375 -6 C 7.0625 -5.34375 7.40625 -4.507812 7.40625 -3.5 C 7.40625 -2.488281 7.0625 -1.648438 6.375 -0.984375 C 5.6875 -0.328125 4.8125 0 3.75 0 L 0.921875 0 Z M 2.09375 -5.9375 L 2.09375 -1.0625 L 3.8125 -1.0625 C 4.5 -1.0625 5.066406 -1.285156 5.515625 -1.734375 C 5.972656 -2.191406 6.203125 -2.773438 6.203125 -3.484375 C 6.203125 -4.191406 5.96875 -4.773438 5.5 -5.234375 C 5.03125 -5.703125 4.453125 -5.9375 3.765625 -5.9375 Z M 2.09375 -5.9375 "/></g></g></g><g fill="#000000" fill-opacity="1"><g transform="translate(186.031904, 256.872391)"><g><path d="M 2.09375 0 L 0.921875 0 L 0.921875 -6.984375 L 2.09375 -6.984375 Z M 2.09375 0 "/></g></g></g><g fill="#000000" fill-opacity="1"><g transform="translate(192.045871, 256.872391)"><g><path d="M 5.4375 -1.578125 L 1.90625 -1.578125 L 1.234375 0 L 0.015625 0 L 3.09375 -6.984375 L 4.296875 -6.984375 L 7.359375 0 L 6.09375 0 Z M 4.984375 -2.625 L 3.671875 -5.734375 L 2.34375 -2.625 Z M 4.984375 -2.625 "/></g></g></g><g fill="#000000" fill-opacity="1"><g transform="translate(202.413045, 256.872391)"><g><path d="M 6.984375 0 L 5.828125 0 L 2.09375 -5.015625 L 2.09375 0 L 0.921875 0 L 0.921875 -6.984375 L 2.078125 -6.984375 L 5.828125 -1.96875 L 5.828125 -6.984375 L 6.984375 -6.984375 Z M 6.984375 0 "/></g></g></g><g fill="#000000" fill-opacity="1"><g transform="translate(213.319384, 256.872391)"><g><path d="M 5.6875 -5.9375 L 3.46875 -5.9375 L 3.46875 0 L 2.296875 0 L 2.296875 -5.9375 L 0.09375 -5.9375 L 0.09375 -6.984375 L 5.6875 -6.984375 Z M 5.6875 -5.9375 "/></g></g></g><g fill="#000000" fill-opacity="1"><g transform="translate(222.099033, 256.872391)"><g><path d="M 5.90625 -5.9375 L 2.09375 -5.9375 L 2.09375 -4.046875 L 5.515625 -4.046875 L 5.515625 -2.984375 L 2.09375 -2.984375 L 2.09375 -1.0625 L 6.03125 -1.0625 L 6.03125 0 L 0.921875 0 L 0.921875 -6.984375 L 5.90625 -6.984375 Z M 5.90625 -5.9375 "/></g></g></g><g fill="#000000" fill-opacity="1"><g transform="translate(231.647484, 256.872391)"><g><path d="M 3.21875 -7.046875 C 4.125 -7.046875 4.9375 -6.800781 5.65625 -6.3125 L 5.171875 -5.28125 C 4.460938 -5.71875 3.78125 -5.9375 3.125 -5.9375 C 2.769531 -5.9375 2.488281 -5.867188 2.28125 -5.734375 C 2.082031 -5.609375 1.984375 -5.429688 1.984375 -5.203125 C 1.984375 -4.972656 2.078125 -4.773438 2.265625 -4.609375 C 2.453125 -4.441406 2.6875 -4.320312 2.96875 -4.25 C 3.25 -4.175781 3.550781 -4.078125 3.875 -3.953125 C 4.195312 -3.835938 4.5 -3.710938 4.78125 -3.578125 C 5.0625 -3.453125 5.289062 -3.25 5.46875 -2.96875 C 5.65625 -2.695312 5.75 -2.367188 5.75 -1.984375 C 5.75 -1.367188 5.503906 -0.875 5.015625 -0.5 C 4.523438 -0.132812 3.890625 0.046875 3.109375 0.046875 C 2.578125 0.046875 2.0625 -0.0507812 1.5625 -0.25 C 1.0625 -0.457031 0.628906 -0.726562 0.265625 -1.0625 L 0.765625 -2.09375 C 1.117188 -1.757812 1.503906 -1.503906 1.921875 -1.328125 C 2.347656 -1.148438 2.753906 -1.0625 3.140625 -1.0625 C 3.546875 -1.0625 3.863281 -1.132812 4.09375 -1.28125 C 4.320312 -1.4375 4.4375 -1.648438 4.4375 -1.921875 C 4.4375 -2.160156 4.34375 -2.359375 4.15625 -2.515625 C 3.976562 -2.679688 3.75 -2.800781 3.46875 -2.875 C 3.1875 -2.957031 2.878906 -3.050781 2.546875 -3.15625 C 2.222656 -3.269531 1.921875 -3.382812 1.640625 -3.5 C 1.367188 -3.625 1.140625 -3.820312 0.953125 -4.09375 C 0.765625 -4.375 0.671875 -4.707031 0.671875 -5.09375 C 0.671875 -5.6875 0.898438 -6.160156 1.359375 -6.515625 C 1.828125 -6.867188 2.445312 -7.046875 3.21875 -7.046875 Z M 3.21875 -7.046875 "/></g></g></g></svg>